<svg xmlns="http://www.w3.org/2000/svg" width="856" height="496" viewBox="0 0 856 496">
<rect width="856" height="496" rx="18" fill="#0D1117"/>
<rect x="268.0" y="48.0" width="18.0" height="18.0" rx="3" fill="#BFE6FA"/>
<rect x="288.0" y="48.0" width="18.0" height="18.0" rx="3" fill="#BFE6FA"/>
<rect x="308.0" y="48.0" width="18.0" height="18.0" rx="3" fill="#BFE6FA"/>
<rect x="328.0" y="48.0" width="18.0" height="18.0" rx="3" fill="#BFE6FA"/>
<rect x="348.0" y="48.0" width="18.0" height="18.0" rx="3" fill="#BFE6FA"/>
<rect x="408.0" y="48.0" width="18.0" height="18.0" rx="3" fill="#BFE6FA"/>
<rect x="428.0" y="48.0" width="18.0" height="18.0" rx="3" fill="#BFE6FA"/>
<rect x="448.0" y="48.0" width="18.0" height="18.0" rx="3" fill="#BFE6FA"/>
<rect x="468.0" y="48.0" width="18.0" height="18.0" rx="3" fill="#BFE6FA"/>
<rect x="488.0" y="48.0" width="18.0" height="18.0" rx="3" fill="#BFE6FA"/>
<rect x="248.0" y="68.0" width="18.0" height="18.0" rx="3" fill="#BFE6FA"/>
<rect x="268.0" y="68.0" width="18.0" height="18.0" rx="3" fill="#BFE6FA"/>
<rect x="288.0" y="68.0" width="18.0" height="18.0" rx="3" fill="#BFE6FA"/>
<rect x="308.0" y="68.0" width="18.0" height="18.0" rx="3" fill="#BFE6FA"/>
<rect x="328.0" y="68.0" width="18.0" height="18.0" rx="3" fill="#BFE6FA"/>
<rect x="348.0" y="68.0" width="18.0" height="18.0" rx="3" fill="#BFE6FA"/>
<rect x="368.0" y="68.0" width="18.0" height="18.0" rx="3" fill="#BFE6FA"/>
<rect x="388.0" y="68.0" width="18.0" height="18.0" rx="3" fill="#BFE6FA"/>
<rect x="408.0" y="68.0" width="18.0" height="18.0" rx="3" fill="#BFE6FA"/>
<rect x="428.0" y="68.0" width="18.0" height="18.0" rx="3" fill="#BFE6FA"/>
<rect x="448.0" y="68.0" width="18.0" height="18.0" rx="3" fill="#BFE6FA"/>
<rect x="468.0" y="68.0" width="18.0" height="18.0" rx="3" fill="#BFE6FA"/>
<rect x="488.0" y="68.0" width="18.0" height="18.0" rx="3" fill="#BFE6FA"/>
<rect x="508.0" y="68.0" width="18.0" height="18.0" rx="3" fill="#BFE6FA"/>
<rect x="248.0" y="88.0" width="18.0" height="18.0" rx="3" fill="#BFE6FA"/>
<rect x="268.0" y="88.0" width="18.0" height="18.0" rx="3" fill="#BFE6FA"/>
<rect x="288.0" y="88.0" width="18.0" height="18.0" rx="3" fill="#BFE6FA"/>
<rect x="308.0" y="88.0" width="18.0" height="18.0" rx="3" fill="#BFE6FA"/>
<rect x="328.0" y="88.0" width="18.0" height="18.0" rx="3" fill="#BFE6FA"/>
<rect x="348.0" y="88.0" width="18.0" height="18.0" rx="3" fill="#BFE6FA"/>
<rect x="368.0" y="88.0" width="18.0" height="18.0" rx="3" fill="#BFE6FA"/>
<rect x="388.0" y="88.0" width="18.0" height="18.0" rx="3" fill="#BFE6FA"/>
<rect x="408.0" y="88.0" width="18.0" height="18.0" rx="3" fill="#BFE6FA"/>
<rect x="428.0" y="88.0" width="18.0" height="18.0" rx="3" fill="#BFE6FA"/>
<rect x="448.0" y="88.0" width="18.0" height="18.0" rx="3" fill="#BFE6FA"/>
<rect x="468.0" y="88.0" width="18.0" height="18.0" rx="3" fill="#BFE6FA"/>
<rect x="488.0" y="88.0" width="18.0" height="18.0" rx="3" fill="#BFE6FA"/>
<rect x="508.0" y="88.0" width="18.0" height="18.0" rx="3" fill="#BFE6FA"/>
<rect x="248.0" y="108.0" width="18.0" height="18.0" rx="3" fill="#BFE6FA"/>
<rect x="268.0" y="108.0" width="18.0" height="18.0" rx="3" fill="#BFE6FA"/>
<rect x="288.0" y="108.0" width="18.0" height="18.0" rx="3" fill="#BFE6FA"/>
<rect x="308.0" y="108.0" width="18.0" height="18.0" rx="3" fill="#BFE6FA"/>
<rect x="328.0" y="108.0" width="18.0" height="18.0" rx="3" fill="#BFE6FA"/>
<rect x="348.0" y="108.0" width="18.0" height="18.0" rx="3" fill="#BFE6FA"/>
<rect x="368.0" y="108.0" width="18.0" height="18.0" rx="3" fill="#BFE6FA"/>
<rect x="388.0" y="108.0" width="18.0" height="18.0" rx="3" fill="#BFE6FA"/>
<rect x="408.0" y="108.0" width="18.0" height="18.0" rx="3" fill="#BFE6FA"/>
<rect x="428.0" y="108.0" width="18.0" height="18.0" rx="3" fill="#BFE6FA"/>
<rect x="448.0" y="108.0" width="18.0" height="18.0" rx="3" fill="#BFE6FA"/>
<rect x="468.0" y="108.0" width="18.0" height="18.0" rx="3" fill="#BFE6FA"/>
<rect x="488.0" y="108.0" width="18.0" height="18.0" rx="3" fill="#BFE6FA"/>
<rect x="508.0" y="108.0" width="18.0" height="18.0" rx="3" fill="#BFE6FA"/>
<rect x="268.0" y="128.0" width="18.0" height="18.0" rx="3" fill="#BFE6FA"/>
<rect x="288.0" y="128.0" width="18.0" height="18.0" rx="3" fill="#BFE6FA"/>
<rect x="308.0" y="128.0" width="18.0" height="18.0" rx="3" fill="#BFE6FA"/>
<rect x="328.0" y="128.0" width="18.0" height="18.0" rx="3" fill="#BFE6FA"/>
<rect x="348.0" y="128.0" width="18.0" height="18.0" rx="3" fill="#BFE6FA"/>
<rect x="408.0" y="128.0" width="18.0" height="18.0" rx="3" fill="#BFE6FA"/>
<rect x="428.0" y="128.0" width="18.0" height="18.0" rx="3" fill="#BFE6FA"/>
<rect x="448.0" y="128.0" width="18.0" height="18.0" rx="3" fill="#BFE6FA"/>
<rect x="468.0" y="128.0" width="18.0" height="18.0" rx="3" fill="#BFE6FA"/>
<rect x="488.0" y="128.0" width="18.0" height="18.0" rx="3" fill="#BFE6FA"/>
<rect x="68.0" y="148.0" width="18.0" height="18.0" rx="3" fill="#FF8A1E"/>
<rect x="168.0" y="148.0" width="18.0" height="18.0" rx="3" fill="#FF8A1E"/>
<rect x="88.0" y="168.0" width="18.0" height="18.0" rx="3" fill="#FF8A1E"/>
<rect x="168.0" y="168.0" width="18.0" height="18.0" rx="3" fill="#FF8A1E"/>
<rect x="108.0" y="188.0" width="18.0" height="18.0" rx="3" fill="#FF8A1E"/>
<rect x="168.0" y="188.0" width="18.0" height="18.0" rx="3" fill="#FF8A1E"/>
<rect x="248.0" y="188.0" width="18.0" height="18.0" rx="3" fill="#FFC21A"/>
<rect x="268.0" y="188.0" width="18.0" height="18.0" rx="3" fill="#FFC21A"/>
<rect x="288.0" y="188.0" width="18.0" height="18.0" rx="3" fill="#FFC21A"/>
<rect x="308.0" y="188.0" width="18.0" height="18.0" rx="3" fill="#FFC21A"/>
<rect x="328.0" y="188.0" width="18.0" height="18.0" rx="3" fill="#FFC21A"/>
<rect x="348.0" y="188.0" width="18.0" height="18.0" rx="3" fill="#FFC21A"/>
<rect x="368.0" y="188.0" width="18.0" height="18.0" rx="3" fill="#FFC21A"/>
<rect x="388.0" y="188.0" width="18.0" height="18.0" rx="3" fill="#FFC21A"/>
<rect x="408.0" y="188.0" width="18.0" height="18.0" rx="3" fill="#FFC21A"/>
<rect x="428.0" y="188.0" width="18.0" height="18.0" rx="3" fill="#FFC21A"/>
<rect x="448.0" y="188.0" width="18.0" height="18.0" rx="3" fill="#FFC21A"/>
<rect x="128.0" y="208.0" width="18.0" height="18.0" rx="3" fill="#FF8A1E"/>
<rect x="168.0" y="208.0" width="18.0" height="18.0" rx="3" fill="#FF8A1E"/>
<rect x="188.0" y="208.0" width="18.0" height="18.0" rx="3" fill="#FFC21A"/>
<rect x="208.0" y="208.0" width="18.0" height="18.0" rx="3" fill="#FFC21A"/>
<rect x="228.0" y="208.0" width="18.0" height="18.0" rx="3" fill="#FFC21A"/>
<rect x="248.0" y="208.0" width="18.0" height="18.0" rx="3" fill="#FFC21A"/>
<rect x="268.0" y="208.0" width="18.0" height="18.0" rx="3" fill="#17171F"/>
<rect x="288.0" y="208.0" width="18.0" height="18.0" rx="3" fill="#17171F"/>
<rect x="308.0" y="208.0" width="18.0" height="18.0" rx="3" fill="#FFC21A"/>
<rect x="328.0" y="208.0" width="18.0" height="18.0" rx="3" fill="#FFC21A"/>
<rect x="348.0" y="208.0" width="18.0" height="18.0" rx="3" fill="#17171F"/>
<rect x="368.0" y="208.0" width="18.0" height="18.0" rx="3" fill="#17171F"/>
<rect x="388.0" y="208.0" width="18.0" height="18.0" rx="3" fill="#FFC21A"/>
<rect x="408.0" y="208.0" width="18.0" height="18.0" rx="3" fill="#FFC21A"/>
<rect x="428.0" y="208.0" width="18.0" height="18.0" rx="3" fill="#17171F"/>
<rect x="448.0" y="208.0" width="18.0" height="18.0" rx="3" fill="#FFC21A"/>
<rect x="468.0" y="208.0" width="18.0" height="18.0" rx="3" fill="#FFC21A"/>
<rect x="488.0" y="208.0" width="18.0" height="18.0" rx="3" fill="#FFC21A"/>
<rect x="508.0" y="208.0" width="18.0" height="18.0" rx="3" fill="#FFC21A"/>
<rect x="688.0" y="208.0" width="18.0" height="18.0" rx="3" fill="#F26B21"/>
<rect x="708.0" y="208.0" width="18.0" height="18.0" rx="3" fill="#F26B21"/>
<rect x="728.0" y="208.0" width="18.0" height="18.0" rx="3" fill="#F26B21"/>
<rect x="748.0" y="208.0" width="18.0" height="18.0" rx="3" fill="#F26B21"/>
<rect x="168.0" y="228.0" width="18.0" height="18.0" rx="3" fill="#FFC21A"/>
<rect x="188.0" y="228.0" width="18.0" height="18.0" rx="3" fill="#FFC21A"/>
<rect x="208.0" y="228.0" width="18.0" height="18.0" rx="3" fill="#17171F"/>
<rect x="228.0" y="228.0" width="18.0" height="18.0" rx="3" fill="#FFC21A"/>
<rect x="248.0" y="228.0" width="18.0" height="18.0" rx="3" fill="#FFC21A"/>
<rect x="268.0" y="228.0" width="18.0" height="18.0" rx="3" fill="#17171F"/>
<rect x="288.0" y="228.0" width="18.0" height="18.0" rx="3" fill="#17171F"/>
<rect x="308.0" y="228.0" width="18.0" height="18.0" rx="3" fill="#FFC21A"/>
<rect x="328.0" y="228.0" width="18.0" height="18.0" rx="3" fill="#FFC21A"/>
<rect x="348.0" y="228.0" width="18.0" height="18.0" rx="3" fill="#17171F"/>
<rect x="368.0" y="228.0" width="18.0" height="18.0" rx="3" fill="#17171F"/>
<rect x="388.0" y="228.0" width="18.0" height="18.0" rx="3" fill="#FFC21A"/>
<rect x="408.0" y="228.0" width="18.0" height="18.0" rx="3" fill="#FFC21A"/>
<rect x="428.0" y="228.0" width="18.0" height="18.0" rx="3" fill="#17171F"/>
<rect x="448.0" y="228.0" width="18.0" height="18.0" rx="3" fill="#17171F"/>
<rect x="468.0" y="228.0" width="18.0" height="18.0" rx="3" fill="#FFC21A"/>
<rect x="488.0" y="228.0" width="18.0" height="18.0" rx="3" fill="#FFC21A"/>
<rect x="508.0" y="228.0" width="18.0" height="18.0" rx="3" fill="#FFC21A"/>
<rect x="528.0" y="228.0" width="18.0" height="18.0" rx="3" fill="#FFC21A"/>
<rect x="668.0" y="228.0" width="18.0" height="18.0" rx="3" fill="#F26B21"/>
<rect x="688.0" y="228.0" width="18.0" height="18.0" rx="3" fill="#F26B21"/>
<rect x="708.0" y="228.0" width="18.0" height="18.0" rx="3" fill="#F26B21"/>
<rect x="728.0" y="228.0" width="18.0" height="18.0" rx="3" fill="#F26B21"/>
<rect x="748.0" y="228.0" width="18.0" height="18.0" rx="3" fill="#F26B21"/>
<rect x="768.0" y="228.0" width="18.0" height="18.0" rx="3" fill="#F26B21"/>
<rect x="148.0" y="248.0" width="18.0" height="18.0" rx="3" fill="#FFC21A"/>
<rect x="168.0" y="248.0" width="18.0" height="18.0" rx="3" fill="#FFC21A"/>
<rect x="188.0" y="248.0" width="18.0" height="18.0" rx="3" fill="#17171F"/>
<rect x="208.0" y="248.0" width="18.0" height="18.0" rx="3" fill="#17171F"/>
<rect x="228.0" y="248.0" width="18.0" height="18.0" rx="3" fill="#FFC21A"/>
<rect x="248.0" y="248.0" width="18.0" height="18.0" rx="3" fill="#FFC21A"/>
<rect x="268.0" y="248.0" width="18.0" height="18.0" rx="3" fill="#17171F"/>
<rect x="288.0" y="248.0" width="18.0" height="18.0" rx="3" fill="#17171F"/>
<rect x="308.0" y="248.0" width="18.0" height="18.0" rx="3" fill="#FFC21A"/>
<rect x="328.0" y="248.0" width="18.0" height="18.0" rx="3" fill="#FFC21A"/>
<rect x="348.0" y="248.0" width="18.0" height="18.0" rx="3" fill="#17171F"/>
<rect x="368.0" y="248.0" width="18.0" height="18.0" rx="3" fill="#17171F"/>
<rect x="388.0" y="248.0" width="18.0" height="18.0" rx="3" fill="#FFC21A"/>
<rect x="408.0" y="248.0" width="18.0" height="18.0" rx="3" fill="#FFC21A"/>
<rect x="428.0" y="248.0" width="18.0" height="18.0" rx="3" fill="#17171F"/>
<rect x="448.0" y="248.0" width="18.0" height="18.0" rx="3" fill="#17171F"/>
<rect x="468.0" y="248.0" width="18.0" height="18.0" rx="3" fill="#FFC21A"/>
<rect x="488.0" y="248.0" width="18.0" height="18.0" rx="3" fill="#FFC21A"/>
<rect x="508.0" y="248.0" width="18.0" height="18.0" rx="3" fill="#17171F"/>
<rect x="528.0" y="248.0" width="18.0" height="18.0" rx="3" fill="#17171F"/>
<rect x="548.0" y="248.0" width="18.0" height="18.0" rx="3" fill="#FFC21A"/>
<rect x="668.0" y="248.0" width="18.0" height="18.0" rx="3" fill="#F26B21"/>
<rect x="688.0" y="248.0" width="18.0" height="18.0" rx="3" fill="#F26B21"/>
<rect x="708.0" y="248.0" width="18.0" height="18.0" rx="3" fill="#F26B21"/>
<rect x="728.0" y="248.0" width="18.0" height="18.0" rx="3" fill="#F26B21"/>
<rect x="748.0" y="248.0" width="18.0" height="18.0" rx="3" fill="#F26B21"/>
<rect x="768.0" y="248.0" width="18.0" height="18.0" rx="3" fill="#F26B21"/>
<rect x="128.0" y="268.0" width="18.0" height="18.0" rx="3" fill="#FFC21A"/>
<rect x="148.0" y="268.0" width="18.0" height="18.0" rx="3" fill="#17171F"/>
<rect x="153.0" y="273.0" width="6.0" height="6.0" rx="3" fill="#FFFFFF"/>
<rect x="168.0" y="268.0" width="18.0" height="18.0" rx="3" fill="#FFC21A"/>
<rect x="188.0" y="268.0" width="18.0" height="18.0" rx="3" fill="#17171F"/>
<rect x="208.0" y="268.0" width="18.0" height="18.0" rx="3" fill="#17171F"/>
<rect x="228.0" y="268.0" width="18.0" height="18.0" rx="3" fill="#FFC21A"/>
<rect x="248.0" y="268.0" width="18.0" height="18.0" rx="3" fill="#FFC21A"/>
<rect x="268.0" y="268.0" width="18.0" height="18.0" rx="3" fill="#17171F"/>
<rect x="288.0" y="268.0" width="18.0" height="18.0" rx="3" fill="#17171F"/>
<rect x="308.0" y="268.0" width="18.0" height="18.0" rx="3" fill="#FFC21A"/>
<rect x="328.0" y="268.0" width="18.0" height="18.0" rx="3" fill="#FFC21A"/>
<rect x="348.0" y="268.0" width="18.0" height="18.0" rx="3" fill="#17171F"/>
<rect x="368.0" y="268.0" width="18.0" height="18.0" rx="3" fill="#17171F"/>
<rect x="388.0" y="268.0" width="18.0" height="18.0" rx="3" fill="#FFC21A"/>
<rect x="408.0" y="268.0" width="18.0" height="18.0" rx="3" fill="#FFC21A"/>
<rect x="428.0" y="268.0" width="18.0" height="18.0" rx="3" fill="#17171F"/>
<rect x="448.0" y="268.0" width="18.0" height="18.0" rx="3" fill="#17171F"/>
<rect x="468.0" y="268.0" width="18.0" height="18.0" rx="3" fill="#FFC21A"/>
<rect x="488.0" y="268.0" width="18.0" height="18.0" rx="3" fill="#FFC21A"/>
<rect x="508.0" y="268.0" width="18.0" height="18.0" rx="3" fill="#17171F"/>
<rect x="528.0" y="268.0" width="18.0" height="18.0" rx="3" fill="#17171F"/>
<rect x="548.0" y="268.0" width="18.0" height="18.0" rx="3" fill="#FFC21A"/>
<rect x="568.0" y="268.0" width="18.0" height="18.0" rx="3" fill="#FFC21A"/>
<rect x="588.0" y="268.0" width="18.0" height="18.0" rx="3" fill="#FF8A1E"/>
<rect x="668.0" y="268.0" width="18.0" height="18.0" rx="3" fill="#F26B21"/>
<rect x="688.0" y="268.0" width="18.0" height="18.0" rx="3" fill="#F26B21"/>
<rect x="708.0" y="268.0" width="18.0" height="18.0" rx="3" fill="#F26B21"/>
<rect x="728.0" y="268.0" width="18.0" height="18.0" rx="3" fill="#F26B21"/>
<rect x="748.0" y="268.0" width="18.0" height="18.0" rx="3" fill="#F26B21"/>
<rect x="768.0" y="268.0" width="18.0" height="18.0" rx="3" fill="#F26B21"/>
<rect x="128.0" y="288.0" width="18.0" height="18.0" rx="3" fill="#FFC21A"/>
<rect x="148.0" y="288.0" width="18.0" height="18.0" rx="3" fill="#17171F"/>
<rect x="153.0" y="293.0" width="6.0" height="6.0" rx="3" fill="#FFFFFF"/>
<rect x="168.0" y="288.0" width="18.0" height="18.0" rx="3" fill="#FFC21A"/>
<rect x="188.0" y="288.0" width="18.0" height="18.0" rx="3" fill="#17171F"/>
<rect x="208.0" y="288.0" width="18.0" height="18.0" rx="3" fill="#17171F"/>
<rect x="228.0" y="288.0" width="18.0" height="18.0" rx="3" fill="#FFC21A"/>
<rect x="248.0" y="288.0" width="18.0" height="18.0" rx="3" fill="#FFC21A"/>
<rect x="268.0" y="288.0" width="18.0" height="18.0" rx="3" fill="#17171F"/>
<rect x="288.0" y="288.0" width="18.0" height="18.0" rx="3" fill="#17171F"/>
<rect x="308.0" y="288.0" width="18.0" height="18.0" rx="3" fill="#FFC21A"/>
<rect x="328.0" y="288.0" width="18.0" height="18.0" rx="3" fill="#FFC21A"/>
<rect x="348.0" y="288.0" width="18.0" height="18.0" rx="3" fill="#17171F"/>
<rect x="368.0" y="288.0" width="18.0" height="18.0" rx="3" fill="#17171F"/>
<rect x="388.0" y="288.0" width="18.0" height="18.0" rx="3" fill="#FFC21A"/>
<rect x="408.0" y="288.0" width="18.0" height="18.0" rx="3" fill="#FFC21A"/>
<rect x="428.0" y="288.0" width="18.0" height="18.0" rx="3" fill="#17171F"/>
<rect x="448.0" y="288.0" width="18.0" height="18.0" rx="3" fill="#17171F"/>
<rect x="468.0" y="288.0" width="18.0" height="18.0" rx="3" fill="#FFC21A"/>
<rect x="488.0" y="288.0" width="18.0" height="18.0" rx="3" fill="#FFC21A"/>
<rect x="508.0" y="288.0" width="18.0" height="18.0" rx="3" fill="#17171F"/>
<rect x="528.0" y="288.0" width="18.0" height="18.0" rx="3" fill="#17171F"/>
<rect x="548.0" y="288.0" width="18.0" height="18.0" rx="3" fill="#FFC21A"/>
<rect x="568.0" y="288.0" width="18.0" height="18.0" rx="3" fill="#FFC21A"/>
<rect x="588.0" y="288.0" width="18.0" height="18.0" rx="3" fill="#FF8A1E"/>
<rect x="608.0" y="288.0" width="18.0" height="18.0" rx="3" fill="#FF8A1E"/>
<rect x="688.0" y="288.0" width="18.0" height="18.0" rx="3" fill="#F26B21"/>
<rect x="708.0" y="288.0" width="18.0" height="18.0" rx="3" fill="#F26B21"/>
<rect x="728.0" y="288.0" width="18.0" height="18.0" rx="3" fill="#F26B21"/>
<rect x="748.0" y="288.0" width="18.0" height="18.0" rx="3" fill="#F26B21"/>
<rect x="768.0" y="288.0" width="18.0" height="18.0" rx="3" fill="#F26B21"/>
<rect x="128.0" y="308.0" width="18.0" height="18.0" rx="3" fill="#FFC21A"/>
<rect x="148.0" y="308.0" width="18.0" height="18.0" rx="3" fill="#FFC21A"/>
<rect x="168.0" y="308.0" width="18.0" height="18.0" rx="3" fill="#FFC21A"/>
<rect x="188.0" y="308.0" width="18.0" height="18.0" rx="3" fill="#17171F"/>
<rect x="208.0" y="308.0" width="18.0" height="18.0" rx="3" fill="#17171F"/>
<rect x="228.0" y="308.0" width="18.0" height="18.0" rx="3" fill="#FFC21A"/>
<rect x="248.0" y="308.0" width="18.0" height="18.0" rx="3" fill="#FFC21A"/>
<rect x="268.0" y="308.0" width="18.0" height="18.0" rx="3" fill="#17171F"/>
<rect x="288.0" y="308.0" width="18.0" height="18.0" rx="3" fill="#17171F"/>
<rect x="308.0" y="308.0" width="18.0" height="18.0" rx="3" fill="#FFC21A"/>
<rect x="328.0" y="308.0" width="18.0" height="18.0" rx="3" fill="#FFC21A"/>
<rect x="348.0" y="308.0" width="18.0" height="18.0" rx="3" fill="#17171F"/>
<rect x="368.0" y="308.0" width="18.0" height="18.0" rx="3" fill="#17171F"/>
<rect x="388.0" y="308.0" width="18.0" height="18.0" rx="3" fill="#FFC21A"/>
<rect x="408.0" y="308.0" width="18.0" height="18.0" rx="3" fill="#FFC21A"/>
<rect x="428.0" y="308.0" width="18.0" height="18.0" rx="3" fill="#17171F"/>
<rect x="448.0" y="308.0" width="18.0" height="18.0" rx="3" fill="#17171F"/>
<rect x="468.0" y="308.0" width="18.0" height="18.0" rx="3" fill="#FFC21A"/>
<rect x="488.0" y="308.0" width="18.0" height="18.0" rx="3" fill="#FFC21A"/>
<rect x="508.0" y="308.0" width="18.0" height="18.0" rx="3" fill="#17171F"/>
<rect x="528.0" y="308.0" width="18.0" height="18.0" rx="3" fill="#17171F"/>
<rect x="548.0" y="308.0" width="18.0" height="18.0" rx="3" fill="#FFC21A"/>
<rect x="568.0" y="308.0" width="18.0" height="18.0" rx="3" fill="#FFC21A"/>
<rect x="588.0" y="308.0" width="18.0" height="18.0" rx="3" fill="#FF8A1E"/>
<rect x="728.0" y="308.0" width="18.0" height="18.0" rx="3" fill="#F26B21"/>
<rect x="748.0" y="308.0" width="18.0" height="18.0" rx="3" fill="#F26B21"/>
<rect x="768.0" y="308.0" width="18.0" height="18.0" rx="3" fill="#F26B21"/>
<rect x="148.0" y="328.0" width="18.0" height="18.0" rx="3" fill="#FFC21A"/>
<rect x="168.0" y="328.0" width="18.0" height="18.0" rx="3" fill="#FFC21A"/>
<rect x="188.0" y="328.0" width="18.0" height="18.0" rx="3" fill="#17171F"/>
<rect x="208.0" y="328.0" width="18.0" height="18.0" rx="3" fill="#17171F"/>
<rect x="228.0" y="328.0" width="18.0" height="18.0" rx="3" fill="#FFC21A"/>
<rect x="248.0" y="328.0" width="18.0" height="18.0" rx="3" fill="#FFC21A"/>
<rect x="268.0" y="328.0" width="18.0" height="18.0" rx="3" fill="#17171F"/>
<rect x="288.0" y="328.0" width="18.0" height="18.0" rx="3" fill="#17171F"/>
<rect x="308.0" y="328.0" width="18.0" height="18.0" rx="3" fill="#FFC21A"/>
<rect x="328.0" y="328.0" width="18.0" height="18.0" rx="3" fill="#FFC21A"/>
<rect x="348.0" y="328.0" width="18.0" height="18.0" rx="3" fill="#17171F"/>
<rect x="368.0" y="328.0" width="18.0" height="18.0" rx="3" fill="#17171F"/>
<rect x="388.0" y="328.0" width="18.0" height="18.0" rx="3" fill="#FFC21A"/>
<rect x="408.0" y="328.0" width="18.0" height="18.0" rx="3" fill="#FFC21A"/>
<rect x="428.0" y="328.0" width="18.0" height="18.0" rx="3" fill="#17171F"/>
<rect x="448.0" y="328.0" width="18.0" height="18.0" rx="3" fill="#17171F"/>
<rect x="468.0" y="328.0" width="18.0" height="18.0" rx="3" fill="#FFC21A"/>
<rect x="488.0" y="328.0" width="18.0" height="18.0" rx="3" fill="#FFC21A"/>
<rect x="508.0" y="328.0" width="18.0" height="18.0" rx="3" fill="#17171F"/>
<rect x="528.0" y="328.0" width="18.0" height="18.0" rx="3" fill="#17171F"/>
<rect x="548.0" y="328.0" width="18.0" height="18.0" rx="3" fill="#FFC21A"/>
<rect x="708.0" y="328.0" width="18.0" height="18.0" rx="3" fill="#F26B21"/>
<rect x="728.0" y="328.0" width="18.0" height="18.0" rx="3" fill="#F26B21"/>
<rect x="748.0" y="328.0" width="18.0" height="18.0" rx="3" fill="#F26B21"/>
<rect x="168.0" y="348.0" width="18.0" height="18.0" rx="3" fill="#FFC21A"/>
<rect x="188.0" y="348.0" width="18.0" height="18.0" rx="3" fill="#FFC21A"/>
<rect x="208.0" y="348.0" width="18.0" height="18.0" rx="3" fill="#17171F"/>
<rect x="228.0" y="348.0" width="18.0" height="18.0" rx="3" fill="#FFC21A"/>
<rect x="248.0" y="348.0" width="18.0" height="18.0" rx="3" fill="#FFC21A"/>
<rect x="268.0" y="348.0" width="18.0" height="18.0" rx="3" fill="#17171F"/>
<rect x="288.0" y="348.0" width="18.0" height="18.0" rx="3" fill="#17171F"/>
<rect x="308.0" y="348.0" width="18.0" height="18.0" rx="3" fill="#FFC21A"/>
<rect x="328.0" y="348.0" width="18.0" height="18.0" rx="3" fill="#FFC21A"/>
<rect x="348.0" y="348.0" width="18.0" height="18.0" rx="3" fill="#17171F"/>
<rect x="368.0" y="348.0" width="18.0" height="18.0" rx="3" fill="#17171F"/>
<rect x="388.0" y="348.0" width="18.0" height="18.0" rx="3" fill="#FFC21A"/>
<rect x="408.0" y="348.0" width="18.0" height="18.0" rx="3" fill="#FFC21A"/>
<rect x="428.0" y="348.0" width="18.0" height="18.0" rx="3" fill="#17171F"/>
<rect x="448.0" y="348.0" width="18.0" height="18.0" rx="3" fill="#17171F"/>
<rect x="468.0" y="348.0" width="18.0" height="18.0" rx="3" fill="#FFC21A"/>
<rect x="488.0" y="348.0" width="18.0" height="18.0" rx="3" fill="#FFC21A"/>
<rect x="508.0" y="348.0" width="18.0" height="18.0" rx="3" fill="#FFC21A"/>
<rect x="528.0" y="348.0" width="18.0" height="18.0" rx="3" fill="#FFC21A"/>
<rect x="688.0" y="348.0" width="18.0" height="18.0" rx="3" fill="#F26B21"/>
<rect x="708.0" y="348.0" width="18.0" height="18.0" rx="3" fill="#F26B21"/>
<rect x="728.0" y="348.0" width="18.0" height="18.0" rx="3" fill="#F26B21"/>
<rect x="188.0" y="368.0" width="18.0" height="18.0" rx="3" fill="#FFC21A"/>
<rect x="208.0" y="368.0" width="18.0" height="18.0" rx="3" fill="#FFC21A"/>
<rect x="228.0" y="368.0" width="18.0" height="18.0" rx="3" fill="#FFC21A"/>
<rect x="248.0" y="368.0" width="18.0" height="18.0" rx="3" fill="#FFC21A"/>
<rect x="268.0" y="368.0" width="18.0" height="18.0" rx="3" fill="#17171F"/>
<rect x="288.0" y="368.0" width="18.0" height="18.0" rx="3" fill="#17171F"/>
<rect x="308.0" y="368.0" width="18.0" height="18.0" rx="3" fill="#FFC21A"/>
<rect x="328.0" y="368.0" width="18.0" height="18.0" rx="3" fill="#FFC21A"/>
<rect x="348.0" y="368.0" width="18.0" height="18.0" rx="3" fill="#17171F"/>
<rect x="368.0" y="368.0" width="18.0" height="18.0" rx="3" fill="#17171F"/>
<rect x="388.0" y="368.0" width="18.0" height="18.0" rx="3" fill="#FFC21A"/>
<rect x="408.0" y="368.0" width="18.0" height="18.0" rx="3" fill="#FFC21A"/>
<rect x="428.0" y="368.0" width="18.0" height="18.0" rx="3" fill="#17171F"/>
<rect x="448.0" y="368.0" width="18.0" height="18.0" rx="3" fill="#FFC21A"/>
<rect x="468.0" y="368.0" width="18.0" height="18.0" rx="3" fill="#FFC21A"/>
<rect x="488.0" y="368.0" width="18.0" height="18.0" rx="3" fill="#FFC21A"/>
<rect x="508.0" y="368.0" width="18.0" height="18.0" rx="3" fill="#FFC21A"/>
<rect x="668.0" y="368.0" width="18.0" height="18.0" rx="3" fill="#F26B21"/>
<rect x="688.0" y="368.0" width="18.0" height="18.0" rx="3" fill="#F26B21"/>
<rect x="248.0" y="388.0" width="18.0" height="18.0" rx="3" fill="#FFC21A"/>
<rect x="268.0" y="388.0" width="18.0" height="18.0" rx="3" fill="#FFC21A"/>
<rect x="288.0" y="388.0" width="18.0" height="18.0" rx="3" fill="#FFC21A"/>
<rect x="308.0" y="388.0" width="18.0" height="18.0" rx="3" fill="#FFC21A"/>
<rect x="328.0" y="388.0" width="18.0" height="18.0" rx="3" fill="#FFC21A"/>
<rect x="348.0" y="388.0" width="18.0" height="18.0" rx="3" fill="#FFC21A"/>
<rect x="368.0" y="388.0" width="18.0" height="18.0" rx="3" fill="#FFC21A"/>
<rect x="388.0" y="388.0" width="18.0" height="18.0" rx="3" fill="#FFC21A"/>
<rect x="408.0" y="388.0" width="18.0" height="18.0" rx="3" fill="#FFC21A"/>
<rect x="428.0" y="388.0" width="18.0" height="18.0" rx="3" fill="#FFC21A"/>
<rect x="448.0" y="388.0" width="18.0" height="18.0" rx="3" fill="#FFC21A"/>
<rect x="50.2" y="151.7" width="16.0" height="16.0" rx="3" fill="#FFC21A" opacity="0.79"/>
<rect x="50.0" y="150.3" width="16.0" height="16.0" rx="3" fill="#FFC21A" opacity="0.79"/>
<rect x="31.1" y="151.8" width="14.0" height="14.0" rx="3" fill="#FFC21A" opacity="0.63"/>
<rect x="69.2" y="168.4" width="16.0" height="16.0" rx="3" fill="#FFC21A" opacity="0.79"/>
<rect x="53.9" y="173.8" width="14.0" height="14.0" rx="3" fill="#FFC21A" opacity="0.63"/>
<rect x="88.1" y="190.1" width="16.0" height="16.0" rx="3" fill="#FFC21A" opacity="0.79"/>
<rect x="88.8" y="189.0" width="16.0" height="16.0" rx="3" fill="#FFC21A" opacity="0.79"/>
<rect x="70.8" y="190.6" width="14.0" height="14.0" rx="3" fill="#FFC21A" opacity="0.63"/>
<rect x="109.1" y="212.0" width="16.0" height="16.0" rx="3" fill="#FFC21A" opacity="0.79"/>
<rect x="69.8" y="210.3" width="12.0" height="12.0" rx="3" fill="#FFC21A" opacity="0.47"/>
<rect x="74.1" y="211.2" width="12.0" height="12.0" rx="3" fill="#FFC21A" opacity="0.47"/>
<rect x="129.3" y="233.5" width="14.0" height="14.0" rx="3" fill="#FFC21A" opacity="0.63"/>
<rect x="133.9" y="230.4" width="14.0" height="14.0" rx="3" fill="#FFC21A" opacity="0.63"/>
<rect x="113.0" y="234.2" width="12.0" height="12.0" rx="3" fill="#FFC21A" opacity="0.47"/>
<rect x="108.7" y="230.7" width="12.0" height="12.0" rx="3" fill="#FFC21A" opacity="0.47"/>
<rect x="129.0" y="248.4" width="16.0" height="16.0" rx="3" fill="#FFC21A" opacity="0.79"/>
<rect x="131.2" y="248.7" width="16.0" height="16.0" rx="3" fill="#FFC21A" opacity="0.79"/>
<rect x="109.1" y="252.4" width="14.0" height="14.0" rx="3" fill="#FFC21A" opacity="0.63"/>
<rect x="93.1" y="248.9" width="12.0" height="12.0" rx="3" fill="#FFC21A" opacity="0.47"/>
<rect x="93.3" y="269.3" width="14.0" height="14.0" rx="3" fill="#FFC21A" opacity="0.63"/>
<rect x="93.1" y="271.9" width="14.0" height="14.0" rx="3" fill="#FFC21A" opacity="0.63"/>
<rect x="75.9" y="269.7" width="12.0" height="12.0" rx="3" fill="#FFC21A" opacity="0.47"/>
<rect x="74.2" y="270.6" width="12.0" height="12.0" rx="3" fill="#FFC21A" opacity="0.47"/>
<rect x="48.9" y="273.8" width="10.0" height="10.0" rx="3" fill="#FFC21A" opacity="0.31"/>
<rect x="110.4" y="289.5" width="16.0" height="16.0" rx="3" fill="#FFC21A" opacity="0.79"/>
<rect x="111.8" y="289.9" width="16.0" height="16.0" rx="3" fill="#FFC21A" opacity="0.79"/>
<rect x="69.2" y="295.3" width="12.0" height="12.0" rx="3" fill="#FFC21A" opacity="0.47"/>
<rect x="93.7" y="313.3" width="14.0" height="14.0" rx="3" fill="#FFC21A" opacity="0.63"/>
<rect x="68.3" y="315.7" width="12.0" height="12.0" rx="3" fill="#FFC21A" opacity="0.47"/>
<rect x="131.3" y="330.4" width="16.0" height="16.0" rx="3" fill="#FFC21A" opacity="0.79"/>
<rect x="128.7" y="330.9" width="16.0" height="16.0" rx="3" fill="#FFC21A" opacity="0.79"/>
<rect x="109.4" y="331.4" width="14.0" height="14.0" rx="3" fill="#FFC21A" opacity="0.63"/>
<rect x="95.3" y="329.6" width="12.0" height="12.0" rx="3" fill="#FFC21A" opacity="0.47"/>
<rect x="70.7" y="332.5" width="10.0" height="10.0" rx="3" fill="#FFC21A" opacity="0.31"/>
<rect x="69.8" y="331.7" width="10.0" height="10.0" rx="3" fill="#FFC21A" opacity="0.31"/>
<rect x="148.5" y="349.4" width="16.0" height="16.0" rx="3" fill="#FFC21A" opacity="0.79"/>
<rect x="88.4" y="348.2" width="10.0" height="10.0" rx="3" fill="#FFC21A" opacity="0.31"/>
<rect x="151.8" y="370.9" width="14.0" height="14.0" rx="3" fill="#FFC21A" opacity="0.63"/>
<rect x="136.0" y="368.6" width="12.0" height="12.0" rx="3" fill="#FFC21A" opacity="0.47"/>
</svg>